<svg xmlns="http://www.w3.org/2000/svg" viewBox="0 0 64 64">
  <defs>
    <linearGradient id="helmetFill" x1="0" y1="0" x2="1" y2="1">
      <stop offset="0%" stop-color="#ffe66d"/>
      <stop offset="55%" stop-color="#ffd23f"/>
      <stop offset="100%" stop-color="#f5b301"/>
    </linearGradient>
  </defs>
  <rect width="64" height="64" rx="14" fill="#091321"/>
  <circle cx="32" cy="31" r="16" fill="none" stroke="#ffffff" stroke-width="3.2"/>
  <path d="M17 28.2c1-9.8 7.1-16.2 15-16.2s14 6.4 15 16.2c-4.3-1.3-9.2-2-15-2s-10.7.7-15 2z" fill="url(#helmetFill)" stroke="#c78b00" stroke-width="1.4" stroke-linejoin="round"/>
  <path d="M15.5 28.6c4.3 2.7 9.8 4 16.5 4s12.2-1.3 16.5-4c-3.9-2.2-9.4-3.3-16.5-3.3s-12.6 1.1-16.5 3.3z" fill="#ffcf33" stroke="#c78b00" stroke-width="1.4" stroke-linejoin="round"/>
  <path d="M22 18.5c2.6-2.8 5.9-4.4 9.6-4.6" fill="none" stroke="#fff4ae" stroke-width="1.8" stroke-linecap="round"/>
  <path d="M32 14v12" fill="none" stroke="#e6a800" stroke-width="1.6" stroke-linecap="round"/>
  <circle cx="26.7" cy="30.7" r="2.2" fill="#ffffff"/>
  <circle cx="37.3" cy="30.7" r="2.2" fill="#ffffff"/>
  <path d="M26.5 38c1.7 1.8 3.5 2.6 5.5 2.6s3.8-.9 5.5-2.6" fill="none" stroke="#ffffff" stroke-width="2.2" stroke-linecap="round"/>
</svg>
